<?xml version="1.0" encoding="utf-8"?>
<!-- Generator: Adobe Illustrator 24.0.0, SVG Export Plug-In . SVG Version: 6.00 Build 0)  -->
<svg version="1.1" id="Default" xmlns="http://www.w3.org/2000/svg" xmlns:xlink="http://www.w3.org/1999/xlink" x="0px" y="0px"
	 viewBox="0 0 256 256" style="enable-background:new 0 0 256 256;" xml:space="preserve">
<style type="text/css">
	.st0{stroke:#000000;stroke-width:3;stroke-miterlimit:10;}
</style>
<g>
	<path class="st0" d="M83.6,70.44c-5.2-0.79-10.73-1.26-16.58-1.41c-5.85-0.14-11.78,0.14-17.77,0.84c-6,0.7-11.59,2.02-16.79,3.93
		c-5.2,1.92-9.74,4.5-13.63,7.73c-3.89,3.23-6.67,7.28-8.36,12.15c-1.31,3.65-1.62,7.28-0.91,10.89c0.7,3.61,1.9,7.03,3.58,10.26
		s3.63,6.23,5.83,8.99c2.2,2.76,4.19,5.13,5.97,7.1c1.69,1.87,2.27,3.07,1.76,3.58c-0.52,0.52-1.71-0.07-3.58-1.76
		c-6.37-6.18-11.08-12.22-14.12-18.13c-3.04-5.9-4.05-11.8-3.02-17.7C7,91.31,9.51,86.53,13.49,82.6c3.98-3.93,8.78-7.14,14.4-9.62
		c5.62-2.48,11.78-4.29,18.48-5.41c6.7-1.12,13.3-1.78,19.81-1.97c6.51-0.19,12.62,0.05,18.34,0.7c5.71,0.66,10.4,1.55,14.05,2.67
		c8.71,2.81,16.09,6.37,22.13,10.68c6.04,4.31,10.82,9.06,14.33,14.26c3.51,5.2,5.74,10.73,6.67,16.58
		c0.94,5.85,0.65,11.71-0.84,17.56c-1.5,5.86-4.24,11.57-8.22,17.14c-3.98,5.57-9.16,10.7-15.53,15.38
		c-2.34,1.69-5.41,3.56-9.2,5.62c-3.79,2.06-7.89,3.98-12.29,5.76c-4.4,1.78-8.97,3.28-13.7,4.5c-4.73,1.22-9.2,1.83-13.42,1.83
		c-4.12,0-7.82-0.77-11.1-2.32c-3.28-1.54-5.71-4.19-7.31-7.94c-0.38-0.75-0.68-1.15-0.91-1.19c-0.23-0.05-0.59,0.35-1.05,1.19
		c-0.56,1.5-1.1,2.95-1.62,4.36c-0.52,1.41-1.01,3.09-1.48,5.06c-0.28,1.59-0.77,2.41-1.48,2.46c-0.7,0.05-0.87-0.91-0.49-2.88
		c0.37-1.88,0.98-4,1.83-6.39c0.84-2.39,1.64-4.66,2.39-6.81c0.19-0.47,0.26-0.77,0.21-0.91c-0.05-0.14-0.17-0.54-0.35-1.19
		c-1.87-4.68-0.75-7.17,3.37-7.45c0.37,0,0.47,0,0.28,0c-0.09,0-0.05-0.19,0.14-0.56c1.87-3.84,3.98-7.94,6.32-12.29
		c2.34-4.36,4.78-8.71,7.31-13.07c2.53-4.36,5.1-8.66,7.73-12.93c2.62-4.26,5.15-8.22,7.59-11.87c2.44-3.65,4.73-6.96,6.88-9.91
		c2.15-2.95,4.03-5.31,5.62-7.1c0.47-0.56,1.12-1.01,1.97-1.33c0.84-0.33,1.59-0.49,2.25-0.49c0.75,0,1.29,0.17,1.62,0.49
		c0.33,0.33,0.26,0.82-0.21,1.48c-1.78,2.25-4,5.25-6.67,8.99c-2.67,3.75-5.55,7.89-8.64,12.43c-3.09,4.54-6.23,9.27-9.41,14.19
		c-3.19,4.92-6.18,9.67-8.99,14.26c-2.81,4.59-5.29,8.81-7.45,12.64c-2.16,3.84-3.7,6.93-4.64,9.27c-0.66,1.31-0.96,2.86-0.91,4.64
		c0.05,1.78,0.44,3.28,1.19,4.5c1.22,2.25,3.21,3.91,5.97,4.99c2.76,1.08,5.95,1.69,9.55,1.83c3.6,0.14,7.54-0.14,11.8-0.84
		c4.26-0.7,8.5-1.78,12.72-3.23c4.22-1.45,8.31-3.18,12.29-5.2c3.98-2.01,7.56-4.29,10.75-6.81c8.24-6.65,14.03-14.1,17.35-22.34
		c3.32-8.24,4.21-16.37,2.67-24.38s-5.57-15.43-12.08-22.27c-6.51-6.84-15.43-12.13-26.77-15.88C93.18,72.25,88.8,71.24,83.6,70.44z
		"/>
	<path class="st0" d="M178.02,173.15c-0.52-0.33-0.73-0.65-0.63-0.98c0.09-0.33,0.42-0.61,0.98-0.84c0.56-0.23,1.12-0.35,1.69-0.35
		c4.78,0.19,9.58-0.14,14.4-0.98c4.82-0.84,9.2-2.15,13.14-3.93c1.69-0.75,3.14-1.8,4.36-3.16c1.22-1.36,2.04-2.86,2.46-4.5
		c0.42-1.64,0.35-3.3-0.21-4.99c-0.56-1.69-1.78-3.23-3.65-4.64c-1.22-0.94-3.02-1.85-5.41-2.74c-2.39-0.89-4.9-1.71-7.52-2.46
		c-2.62-0.75-5.2-1.38-7.73-1.9c-2.53-0.51-4.54-0.87-6.04-1.05c-0.56,0.75-1.85,2.51-3.86,5.27c-2.02,2.76-4.22,5.95-6.6,9.55
		c-2.39,3.61-4.73,7.31-7.02,11.1c-2.3,3.79-4,7-5.13,9.63c-0.94,1.87-1.66,2.86-2.18,2.95c-0.52,0.09-0.4-0.98,0.35-3.23
		c0.56-1.88,1.66-4.36,3.3-7.45c1.64-3.09,3.49-6.32,5.55-9.69c2.06-3.37,4.12-6.72,6.18-10.05c2.06-3.32,3.89-6.16,5.48-8.5
		c-0.66-0.19-1.22-0.33-1.69-0.42c-0.47-0.09-1.03-0.28-1.69-0.56c-0.75-0.28-1.31-0.63-1.69-1.05c-0.38-0.42-0.59-0.84-0.63-1.26
		c-0.05-0.42,0.05-0.79,0.28-1.12c0.23-0.33,0.49-0.49,0.77-0.49c0.84-0.09,2.08-0.21,3.72-0.35c1.64-0.14,3.07-0.4,4.29-0.77
		c2.06-2.9,4.1-5.92,6.11-9.06c2.01-3.14,3.91-6.2,5.69-9.2c1.78-3,3.37-5.85,4.78-8.57c1.41-2.72,2.58-5.1,3.51-7.17
		c0.19-0.37,0.4-0.91,0.63-1.62c0.23-0.7,0.37-1.36,0.42-1.97c0.05-0.61-0.02-1.17-0.21-1.69c-0.19-0.51-0.61-0.82-1.26-0.91
		c-0.56-0.09-0.42-0.47,0.42-1.12c0.84-0.65,1.87-1.19,3.09-1.62c1.22-0.42,2.34-0.56,3.37-0.42c1.03,0.14,1.41,0.91,1.12,2.32
		c-0.19,1.31-0.8,3.09-1.83,5.34c-1.03,2.25-2.27,4.69-3.72,7.31c-1.45,2.62-3.02,5.34-4.71,8.15c-1.69,2.81-3.35,5.5-4.99,8.08
		c-1.64,2.58-3.12,4.9-4.43,6.95c-1.31,2.06-2.34,3.65-3.09,4.78c1.31-0.19,3.21-0.56,5.69-1.12c2.48-0.56,5.25-1.24,8.29-2.04
		c3.04-0.79,6.27-1.71,9.69-2.74c3.42-1.03,6.74-2.18,9.98-3.44c3.23-1.26,6.23-2.6,8.99-4c2.76-1.4,5.08-2.86,6.95-4.36
		c1.78-1.4,3.42-3.09,4.92-5.06c1.5-1.97,2.53-4.05,3.09-6.25c0.56-2.2,0.44-4.47-0.35-6.81c-0.8-2.34-2.65-4.59-5.55-6.74
		c-4.4-3.28-9.18-5.95-14.33-8.01c-5.15-2.06-10.52-3.67-16.09-4.85c-5.57-1.17-11.26-1.99-17.07-2.46
		c-5.81-0.47-11.57-0.75-17.28-0.84c-0.84,0-2.32-0.05-4.43-0.14c-2.11-0.09-4.54-0.07-7.31,0.07c-2.76,0.14-5.71,0.42-8.85,0.84
		c-3.14,0.42-6.16,1.1-9.06,2.04c-2.9,0.94-5.55,2.23-7.94,3.86c-2.39,1.64-4.19,3.68-5.41,6.11c-0.75,1.41-0.84,2.86-0.28,4.36
		c0.56,1.5,1.41,2.93,2.53,4.29c1.12,1.36,2.36,2.53,3.72,3.51c1.36,0.98,2.46,1.71,3.3,2.18c1.4,0.75,2.06,1.5,1.97,2.25
		c-0.09,0.75-0.98,0.56-2.67-0.56c-1.59-0.94-3.33-2.04-5.2-3.3c-1.88-1.26-3.54-2.62-4.99-4.07c-1.45-1.45-2.46-3.04-3.02-4.78
		c-0.56-1.73-0.28-3.58,0.84-5.55c1.12-2.15,3.02-3.96,5.69-5.41c2.67-1.45,5.67-2.69,8.99-3.72c3.32-1.03,6.77-1.85,10.33-2.46
		c3.56-0.61,6.86-1.05,9.91-1.33c3.04-0.28,5.64-0.47,7.8-0.56c2.15-0.09,3.42-0.14,3.79-0.14c6.37,0.09,12.53,0.31,18.48,0.63
		c5.95,0.33,11.73,1.03,17.35,2.11c5.62,1.08,11.05,2.6,16.3,4.57c5.25,1.97,10.35,4.69,15.31,8.15c3.18,2.25,5.43,4.68,6.75,7.31
		c1.31,2.62,1.78,5.27,1.4,7.94c-0.38,2.67-1.47,5.27-3.3,7.8c-1.83,2.53-4.24,4.78-7.24,6.74c-3.65,2.44-7.68,4.61-12.08,6.53
		c-4.4,1.92-8.83,3.58-13.28,4.99c-4.45,1.41-8.76,2.58-12.93,3.51c-4.17,0.94-7.8,1.69-10.89,2.25c-1.22,0.19-1.83,0.56-1.83,1.12
		c0,0.56,0.56,0.94,1.69,1.12c2.9,0.38,5.69,0.98,8.36,1.83c2.67,0.84,5.1,1.78,7.31,2.81c2.2,1.03,4.1,2.06,5.69,3.09
		c1.59,1.03,2.76,1.92,3.51,2.67c2.15,2.16,3.3,4.19,3.44,6.11c0.14,1.92-0.28,3.72-1.26,5.41c-0.98,1.69-2.34,3.23-4.07,4.64
		c-1.73,1.4-3.4,2.67-4.99,3.79c-3.19,2.16-7.09,3.79-11.73,4.92s-9.91,1.55-15.81,1.26C179.54,173.69,178.53,173.48,178.02,173.15z
		"/>
</g>
<g>
</g>
<g>
</g>
<g>
</g>
<g>
</g>
<g>
</g>
</svg>
